<?xml version="1.0" encoding="UTF-8" standalone="no"?>
<!-- Created with Inkscape (http://www.inkscape.org/) -->

<svg
   width="250"
   height="150"
   viewBox="34 0 66.146 39.6876"
   version="1.1"
   id="svg1"
   inkscape:version="1.4.2 (f4327f4, 2025-05-13)"
   sodipodi:docname="A-OkLogo.svg"
   xml:space="preserve"
   inkscape:export-filename="A-OkLogo.png"
   inkscape:export-xdpi="300"
   inkscape:export-ydpi="300"
   xmlns:inkscape="http://www.inkscape.org/namespaces/inkscape"
   xmlns:sodipodi="http://sodipodi.sourceforge.net/DTD/sodipodi-0.dtd"
   xmlns="http://www.w3.org/2000/svg"
   xmlns:svg="http://www.w3.org/2000/svg"
   xmlns:rdf="http://www.w3.org/1999/02/22-rdf-syntax-ns#"
   xmlns:cc="http://creativecommons.org/ns#"
   xmlns:dc="http://purl.org/dc/elements/1.1/"><title
     id="title175">A-Ok Hay Logo</title><sodipodi:namedview
     id="namedview1"
     pagecolor="#ffffff"
     bordercolor="#000000"
     borderopacity="0.0745098"
     inkscape:showpageshadow="2"
     inkscape:pageopacity="0.0"
     inkscape:pagecheckerboard="0"
     inkscape:deskcolor="#262626"
     inkscape:document-units="px"
     showgrid="false"
     inkscape:zoom="2.0881594"
     inkscape:cx="70.875817"
     inkscape:cy="31.367338"
     inkscape:window-width="1427"
     inkscape:window-height="817"
     inkscape:window-x="0"
     inkscape:window-y="0"
     inkscape:window-maximized="0"
     inkscape:current-layer="layer8"
     showguides="false"
     inkscape:clip-to-page="true"
     inkscape:export-bgcolor="#ffffff00" /><defs
     id="defs1"><rect
       x="130.4977"
       y="13.169493"
       width="110.14485"
       height="71.115265"
       id="rect175" /><inkscape:path-effect
       effect="fill_between_many"
       method="originald"
       linkedpaths="#path2,0,1"
       id="path-effect3"
       is_visible="true"
       lpeversion="0"
       join="true"
       close="true"
       autoreverse="true" /></defs><g
     id="layer2"
     inkscape:label="Rabbit"
     transform="matrix(1.0850931,0,0,1.0850931,33.07849,-0.32058837)"><g
       id="layer3"
       inkscape:label="Base"
       style="display:inline;mix-blend-mode:normal"
       inkscape:groupmode="layer"><g
         id="g1"><g
           id="g171"
           style="display:inline"
           transform="translate(0.4273998,-0.5698664)"><path
             style="display:inline;mix-blend-mode:normal;fill:#ffffff;stroke:#000000;stroke-width:0.264583;stroke-linecap:round;stroke-linejoin:round;stroke-miterlimit:1.9;stroke-dasharray:none;stroke-opacity:1;paint-order:normal"
             d="m 7.1905928,25.341297 c -0.2805519,-2.01071 0.1885527,-3.153928 0.9502988,-4.78317 2.2592154,-3.324895 4.1626894,-4.030408 5.4483794,-4.434727 1.658382,-0.481509 3.666073,-0.451908 5.891851,-0.28509 1.328405,0.130062 2.377747,0.334551 3.452752,0.886946 1.346105,0.07709 1.435453,-0.364944 1.758052,-0.760239 0.319088,-0.874907 -0.0551,-1.403176 -0.110868,-2.090657 -0.502123,0.09636 -1.060823,-0.712506 -1.647184,-1.963951 -0.336222,-0.566129 -0.444423,-1.197406 -0.19006,-1.9322734 l 0.09503,-1.678861 c -0.19006,-1.2450249 -0.60865,-2.2257117 -0.475149,-3.1835003 0.840042,-1.349725 1.919079,-0.5112465 2.280717,-0.2692514 0.505902,0.5701792 1.153107,1.377933 1.140357,2.1698485 0.372845,0.8459312 1.091189,1.5177843 0.886946,3.1518236 l -0.348442,1.108682 0.158383,1.362095 c 0.337236,-0.177557 0.209709,-0.06676 0.712724,-0.25341 -0.379097,-1.66058 0.227231,-1.956768 0.522663,-3.1676623 0.263715,-0.820907 0.475555,-2.1565076 1.203713,-2.5974829 0.461407,-1.2153831 0.985917,-1.5341783 2.090656,-2.1223336 0.917571,0.1725471 0.507611,1.1092641 0.126706,1.5204778 0.19286,0.4923873 0.189614,0.8867217 0.221739,1.2987415 -0.38275,1.4179148 -0.959833,2.6137359 -1.932272,3.3577215 -0.17987,0.710841 -0.369809,1.418326 -1.045328,1.96395 0.731228,0.217685 1.517339,0.243283 2.090657,1.013653 0.796664,0.559924 0.679066,1.642283 0.950299,2.502453 0.643872,0.464663 0.915572,0.353029 1.156195,1.577892 -0.002,0.626275 -0.537767,1.811226 -1.441284,2.191626 l -1.362096,0.506826 c 0.05003,1.854729 0.0096,3.684776 -0.855268,5.289995 -0.822733,1.025358 -1.348209,2.499851 -2.62916,2.91425 l -0.475149,0.633532 0.823592,2.312392 c 1.189647,-0.152131 1.686977,0.411208 1.805567,0.823593 0.278816,0.651516 -0.27919,0.963808 -0.728562,1.235389 -0.281986,0.288031 -2.521069,0.169785 -3.421075,-0.443474 -0.640775,-0.43662 -2.950527,-3.677672 -2.53413,-3.389397 -0.437357,0.0202 -0.864668,0.110726 -1.314943,0.04051 -0.259405,-0.04045 -0.874874,-0.0076 -1.155834,-0.198886 -0.485708,0.455968 -0.749679,0.873907 -1.235387,1.077005 1.522626,0.292093 1.480844,-0.17111 2.629159,0.506828 0.438927,0.409522 0.215007,1.057801 0.06335,1.330416 -0.497309,0.365254 -2.335748,0.414666 -2.755865,0.316773 -1.058453,-0.03168 -3.977946,-0.0885 -4.244672,-0.03168 -2.901193,0.618064 -3.538963,0.265845 -4.5931076,0.126688 C 8.5912409,32.794398 7.9761874,32.315932 8.0458617,31.73997 L 8.3943044,30.092791 C 8.2523771,29.03331 7.8731698,29.11348 7.3172994,29.047463 6.0473382,30.225583 5.4958386,29.018976 4.7831697,28.445606 4.5350927,27.94389 4.0621683,27.41983 4.1496373,26.640038 4.1002322,26.143771 3.9222187,25.647504 4.4347268,25.151237 c 0.085336,-0.512018 2.5860551,-0.248199 2.755866,0.19006 z"
             id="path1"
             sodipodi:nodetypes="cccccccccccccccccccccccccccccccccccscscccccscccccccc" /><path
             id="path17-2-3-4"
             style="display:inline;mix-blend-mode:normal;fill:#262626;fill-opacity:1;stroke:none;stroke-width:0.41538;stroke-linecap:round;stroke-linejoin:round;stroke-miterlimit:1.9;stroke-dasharray:none;stroke-opacity:1;paint-order:normal"
             d="m 31.231156,15.995657 c 0.07102,-1.201652 0.279838,-1.977703 -2.72912,-3.525529 -1.946585,0.186092 -2.204184,-0.525999 -2.450125,-0.5001 -0.128121,1.108652 0.885387,1.158448 1.989689,2.22823 0.622056,0.815283 0.842812,1.773029 2.159256,1.887003 z"
             inkscape:transform-center-x="0.23590001"
             inkscape:transform-center-y="0.62453524"
             sodipodi:nodetypes="cccccc" /><path
             id="path20"
             style="display:inline;fill:#272727;fill-opacity:1;stroke-width:0.216697;stroke-linecap:round;stroke-linejoin:round;stroke-miterlimit:1.9"
             d="m 23.24018,17.689097 c -0.05012,1.335777 -0.308083,2.356725 -1.77949,4.701355 -0.609706,0.971543 -3.279762,-2.28602 -2.496883,-3.991283 0.977335,-2.128827 0.50576,-6.070081 2.431963,-5.685653 1.39845,0.2791 1.940077,2.426168 1.84441,4.975581 z"
             sodipodi:nodetypes="sssss"
             transform="matrix(0.9294542,-0.36893754,0.27477611,0.96150823,0,0)" /><path
             style="display:inline;fill:#ffffff;stroke:#000000;stroke-width:0.185208;stroke-linecap:round;stroke-linejoin:round;stroke-miterlimit:1.9;stroke-dasharray:none;stroke-opacity:1;paint-order:normal"
             d="m 26.513331,12.512265 c 0.733457,-0.157998 1.557662,0.163436 1.979791,0.205898 l -0.966142,-0.22174 c -0.570444,0.09155 -0.552728,0.05357 -1.013649,0.01584 z"
             id="path6"
             sodipodi:nodetypes="cccc" /><path
             id="path17"
             style="fill:#262626;fill-opacity:1;stroke:none;stroke-width:0.227729;stroke-linecap:round;stroke-linejoin:round;stroke-miterlimit:1.9;stroke-dasharray:none;stroke-opacity:1;paint-order:normal"
             d="m 5.1505661,26.415626 c 0.1379235,0.299927 0.5557376,0.545189 1.1249508,0.660358 -0.3146137,0.600072 -0.30896,1.152899 0.014325,1.400718 0.4414321,0.338465 1.3245667,0.0074 1.9725021,-0.739334 0.4093715,-0.434527 0.7547463,-1.001793 0.7303587,-1.548015 0.046631,-0.536669 -0.7861775,-0.978794 -1.8601165,-0.987505 -1.0739245,-0.0087 -1.9823432,0.419225 -2.0290057,0.955888 -0.00758,0.08694 0.00822,0.173677 0.046986,0.25789 z"
             inkscape:transform-center-x="0.027263209"
             inkscape:transform-center-y="0.034707989"
             sodipodi:nodetypes="cccccccc" /><path
             id="path17-1"
             style="display:inline;mix-blend-mode:normal;fill:#262626;fill-opacity:1;stroke:none;stroke-width:0.227729;stroke-linecap:round;stroke-linejoin:round;stroke-miterlimit:1.9;stroke-dasharray:none;stroke-opacity:1;paint-order:normal"
             d="m 7.6076902,22.023193 c -0.3146138,0.600071 -0.4881521,1.28729 -0.16487,1.535111 0.4414318,0.338465 1.3245664,0.0074 1.972502,-0.739333 0.4093719,-0.434527 0.8180988,-0.970117 0.7303588,-1.548015 0.04663,-0.536669 -0.7861777,-0.978794 -1.8601168,-0.987505 0.1804055,-0.187932 -1.2470867,1.624573 -0.677874,1.739742 z"
             inkscape:transform-center-x="0.027263209"
             inkscape:transform-center-y="0.034707989"
             sodipodi:nodetypes="cccccc" /><path
             id="path17-1-1"
             style="display:inline;mix-blend-mode:normal;fill:#252525;fill-opacity:1;stroke:none;stroke-width:0.526479;stroke-linecap:round;stroke-linejoin:round;stroke-miterlimit:1.9;stroke-dasharray:none;stroke-opacity:1;paint-order:normal"
             d="m 11.435576,24.387846 c 0.223378,0.905708 0.949592,1.661236 1.95531,2.034236 -0.605445,1.783229 -0.950239,2.723733 -0.392663,3.482311 1.168924,0.545873 3.267886,-0.58157 3.743901,-0.862141 0.969326,-0.803326 1.804211,-1.921336 1.908934,-3.194599 0.106236,-1.273832 -0.159767,-2.62781 -0.755199,-3.249476 -1.078416,-1.205751 -1.837985,-1.653662 -3.21786,-1.909962 -1.913046,-0.07866 -3.18366,1.318101 -3.306889,2.924362 -0.01999,0.260214 0.0017,0.520964 0.06448,0.775269 z"
             inkscape:transform-center-x="-0.0034881838"
             inkscape:transform-center-y="0.095503499"
             sodipodi:nodetypes="cccccccccc" /><path
             id="path17-1-2"
             style="display:inline;mix-blend-mode:normal;fill:#252525;fill-opacity:1;stroke:none;stroke-width:0.281599;stroke-linecap:round;stroke-linejoin:round;stroke-miterlimit:1.9;stroke-dasharray:none;stroke-opacity:1;paint-order:normal"
             d="m 24.073462,23.831935 c 0.428483,1.130173 0.833695,1.550934 1.966129,1.508526 0.617037,0.05402 1.29722,-1.42197 1.441055,-2.769738 0.07704,-0.720956 0.479349,-1.924696 0.276137,-2.410617 -2.385108,-0.404704 -2.559323,0.08349 -3.804287,0.628771 -1.036272,0.810379 -1.80297,0.888562 -1.825751,2.466663 -0.01681,1.164178 1.766311,0.100552 1.946717,0.576395 z"
             inkscape:transform-center-x="0.33821291"
             inkscape:transform-center-y="-0.10602581"
             sodipodi:nodetypes="sccccss" /><path
             id="path17-1-7"
             style="display:inline;mix-blend-mode:normal;fill:#272727;fill-opacity:1;stroke:none;stroke-width:0.511594;stroke-linecap:round;stroke-linejoin:round;stroke-miterlimit:1.9;stroke-dasharray:none;stroke-opacity:1;paint-order:normal"
             d="m 28.288556,32.252527 c -0.898613,-1.098352 -2.026389,-0.720164 -2.07652,-0.90475 -1.611204,-2.791771 -1.616231,-5.73358 -2.823213,-6.114862 -1.46719,1.198273 -1.053714,3.635404 -0.16219,5.247817 0.470012,1.107344 1.881791,4.607686 5.283657,2.75377 z"
             inkscape:transform-center-x="0.10200005"
             inkscape:transform-center-y="0.34339555"
             sodipodi:nodetypes="cccccc" /><path
             id="path17-2"
             style="display:inline;mix-blend-mode:normal;fill:#272727;fill-opacity:1;stroke:none;stroke-width:0.227729;stroke-linecap:round;stroke-linejoin:round;stroke-miterlimit:1.9;stroke-dasharray:none;stroke-opacity:1;paint-order:normal"
             d="m 20.77559,18.504183 c 0.231797,0.23505 0.708154,0.323409 1.28257,0.237903 -0.09152,0.671336 0.450461,1.252565 0.838801,1.375513 0.530307,0.167912 1.121246,-0.665743 1.222825,-1.588464 -0.05937,-1.169805 0.726307,-2.262145 0.652993,-2.689954 -0.138871,0.418891 -1.882527,1.358777 -2.895273,0.310435 -1.308316,0.46178 -1.538537,1.912384 -1.101916,2.354569 z"
             inkscape:transform-center-x="0.37237798"
             inkscape:transform-center-y="-0.16110405"
             sodipodi:nodetypes="cccccccc" /><path
             id="path17-2-3"
             style="display:inline;mix-blend-mode:normal;fill:#555555;fill-opacity:1;stroke:none;stroke-width:0.269644;stroke-linecap:round;stroke-linejoin:round;stroke-miterlimit:1.9;stroke-dasharray:none;stroke-opacity:1;paint-order:normal"
             d="m 29.663015,19.357927 c 0.424858,0.217583 1.488691,0.827275 2.471156,-0.323466 0.265203,-0.441243 0.55334,-1.47023 0.05086,-1.866362 -0.864726,-0.286293 -1.004008,0.269952 -1.737385,0.690554 -1.588314,-0.231741 -1.294718,1.068268 -0.784633,1.499298 z"
             inkscape:transform-center-x="0.52206919"
             inkscape:transform-center-y="-0.16110405"
             sodipodi:nodetypes="cccccc" /><ellipse
             style="fill:#2c2c2c;fill-opacity:1;stroke:none;stroke-width:0.152481;stroke-linecap:round;stroke-linejoin:round;stroke-miterlimit:1.9;stroke-dasharray:none;stroke-opacity:1;paint-order:normal"
             id="path18"
             cx="-0.92862672"
             cy="22.153494"
             rx="0.90678114"
             ry="0.42877135"
             transform="matrix(0.86403155,-0.50343766,0.5144548,0.8575175,0,0)" /><path
             id="path19"
             style="fill:#2a2a2a;fill-opacity:1;stroke-width:0.21566;stroke-linecap:round;stroke-linejoin:round;stroke-miterlimit:1.9"
             d="m 5.9314081,22.45719 c -10e-8,0.445338 -3.4156416,-0.697251 -4.1241054,-0.902548 -0.1209087,-0.03504 -4.3532622,0.1599 -4.7524544,-0.262758 -0.3057856,-0.323761 3.281161,-0.859694 4.0187712,-0.859694 0.7376102,0 4.8577894,1.579662 4.8577886,2.025 z"
             sodipodi:nodetypes="sssss"
             transform="rotate(-32.286024)" /><ellipse
             style="display:inline;mix-blend-mode:normal;fill:#2f2f2f;fill-opacity:1;stroke:none;stroke-width:0.152481;stroke-linecap:round;stroke-linejoin:round;stroke-miterlimit:1.9;stroke-dasharray:none;stroke-opacity:1;paint-order:normal"
             id="path18-9"
             cx="1.9590893"
             cy="22.53726"
             rx="0.90678114"
             ry="0.42877135"
             transform="matrix(0.86403155,-0.50343766,0.5144548,0.8575175,0,0)" /><ellipse
             style="display:inline;mix-blend-mode:normal;fill:#282828;fill-opacity:1;stroke:none;stroke-width:0.152481;stroke-linecap:round;stroke-linejoin:round;stroke-miterlimit:1.9;stroke-dasharray:none;stroke-opacity:1;paint-order:normal"
             id="path18-6"
             cx="17.005922"
             cy="17.84532"
             rx="0.90678114"
             ry="0.42877135"
             transform="matrix(0.99999611,0.00278817,0.01001059,0.99994989,0,0)" /><ellipse
             style="display:inline;mix-blend-mode:normal;fill:#262626;fill-opacity:1;stroke:none;stroke-width:0.161368;stroke-linecap:round;stroke-linejoin:round;stroke-miterlimit:1.9;stroke-dasharray:none;stroke-opacity:1;paint-order:normal"
             id="path18-60"
             cx="17.255322"
             cy="12.712222"
             rx="1.0529691"
             ry="0.41353571"
             transform="matrix(0.97674666,0.21439673,0.14404546,0.98957107,0,0)" /><ellipse
             style="display:inline;mix-blend-mode:normal;fill:#262626;fill-opacity:1;stroke:none;stroke-width:0.18849;stroke-linecap:round;stroke-linejoin:round;stroke-miterlimit:1.9;stroke-dasharray:none;stroke-opacity:1;paint-order:normal"
             id="path18-6-5"
             cx="-1.4189987"
             cy="38.154327"
             rx="1.0338733"
             ry="0.52296269"
             transform="matrix(0.81590143,-0.57819103,0.70566662,0.70854402,0,0)" /><path
             id="path18-6-6"
             style="display:inline;fill:#262626;fill-opacity:1;stroke-width:0.328365;stroke-linecap:round;stroke-linejoin:round;stroke-miterlimit:1.9"
             d="m 31.784476,-17.195498 c -0.0737,0.402963 -0.632873,3.087569 -2.131007,0.885149 -0.711789,-1.046407 -2.842055,-0.71517 -2.842055,-1.12498 -10e-7,-0.409811 0.989748,-0.674932 2.206197,-0.742028 1.245948,-0.06872 3.273096,-1.786111 2.766865,0.981859 z"
             sodipodi:nodetypes="sssss"
             transform="matrix(0.10585543,0.99438153,-0.99461809,0.10360911,0,0)" /><path
             id="path18-6-6-3"
             style="display:inline;mix-blend-mode:normal;fill:#282828;fill-opacity:1;stroke-width:0.328365;stroke-linecap:round;stroke-linejoin:round;stroke-miterlimit:1.9"
             d="m 20.78191,32.468442 c -0.316871,0.66987 -2.157959,0.879844 -3.477816,0.421051 -1.620626,-0.563343 -4.94304,0.292873 -3.430568,-2.430856 1.016436,-1.830444 4.548791,0.528979 4.402525,0.391661 -0.295745,-0.277653 3.411736,-0.296898 2.505859,1.618144 z"
             sodipodi:nodetypes="sssss" /><ellipse
             style="display:inline;mix-blend-mode:normal;fill:#282828;fill-opacity:1;stroke:none;stroke-width:0.120084;stroke-linecap:round;stroke-linejoin:round;stroke-miterlimit:1.9;stroke-dasharray:none;stroke-opacity:1;paint-order:normal"
             id="path18-6-8"
             cx="26.800571"
             cy="8.1971693"
             rx="0.6857059"
             ry="0.35166737"
             transform="matrix(0.83868036,0.54462395,-0.42120274,0.90696651,0,0)" /><path
             id="path22"
             style="display:inline;mix-blend-mode:normal;fill:#1c1c1c;fill-opacity:1;stroke-width:0.238125;stroke-linecap:round;stroke-linejoin:round;stroke-miterlimit:1.9"
             inkscape:transform-center-x="-0.03778716"
             inkscape:transform-center-y="-0.2093847"
             d="m 17.695014,7.4811838 c 0.06653,0.9917028 -0.43953,1.4680704 -0.957091,1.9340886 L 15.615663,9.2637257 15.46892,7.7751778 16.499023,4.5999165 17.392632,3.3374144 c 0.47827,-0.9537423 1.157239,-1.7777366 2.171767,-1.9194859 0.494548,0.3267858 0.261368,0.3705457 0.05504,1.3417974 0.127788,0.8587309 0.177572,1.089513 0.0863,1.4008218 l -0.449583,1.5582479 c -0.4847,0.535199 -0.637193,1.2271892 -1.561142,1.7623882 z"
             sodipodi:nodetypes="ccccccccccc"
             transform="translate(11.624953,3.1806229)" /><path
             style="display:inline;mix-blend-mode:normal;fill:#ffffff;stroke:#000000;stroke-width:0.185208;stroke-linecap:round;stroke-linejoin:round;stroke-miterlimit:1.9;stroke-dasharray:none;stroke-opacity:1;paint-order:normal"
             d="m 22.838844,5.2583192 c 0.502382,-0.4415195 1.125067,-0.3125162 1.488801,0.1425445 0.746933,0.5579625 0.823686,1.6867216 1.140358,2.8667345 0.386614,0.561118 0.620812,1.2332996 0.253414,2.9776018 0.215109,0.507313 0.02364,1.687697 -0.443474,1.948115 -0.508738,-0.02629 -0.766385,-0.498253 -1.235388,-1.235389 -0.416459,-0.71257 -0.384481,-0.956669 -0.586017,-1.663023 C 23.952903,8.5588046 23.493958,8.0086901 23.028903,6.9530193 22.916056,6.3425842 22.609716,5.8153755 22.838844,5.2583192 Z"
             id="path5"
             sodipodi:nodetypes="ccccccccc" /><path
             id="path24"
             style="display:inline;mix-blend-mode:normal;fill:#262626;fill-opacity:1;stroke-width:0.209229;stroke-linecap:round;stroke-linejoin:round;stroke-miterlimit:1.9"
             d="m 26.715897,26.363557 c 0.136544,-1.716368 1.24282,-2.787758 1.555245,-3.652287 0.460951,-1.275523 1.042402,-2.056664 1.545519,-2.368176 0.385396,-0.238623 -0.452522,4.152307 -0.678523,4.723969 -1.360418,3.441137 -2.559958,3.027607 -2.422241,1.296494 z"
             inkscape:transform-center-x="0.62484338"
             inkscape:transform-center-y="-0.64808613"
             sodipodi:nodetypes="sssss" /><path
             style="display:inline;mix-blend-mode:normal;fill:none;stroke:#000000;stroke-width:0.264583;stroke-linecap:round;stroke-linejoin:round;stroke-miterlimit:1.9;stroke-dasharray:none;stroke-opacity:1;paint-order:normal"
             d="m 7.1905928,25.341297 c -0.2805519,-2.01071 0.1885527,-3.153928 0.9502988,-4.78317 2.2592154,-3.324895 4.1626894,-4.030408 5.4483794,-4.434727 1.658382,-0.481509 3.666073,-0.451908 5.891851,-0.28509 1.328405,0.130062 2.377747,0.334551 3.452752,0.886946 1.346105,0.07709 1.435453,-0.364944 1.758052,-0.760239 0.319088,-0.874907 -0.0551,-1.403176 -0.110868,-2.090657 -0.502123,0.09636 -1.060823,-0.712506 -1.647184,-1.963951 -0.336222,-0.566129 -0.444423,-1.197406 -0.19006,-1.9322734 l 0.09503,-1.678861 c -0.19006,-1.2450249 -0.60865,-2.2257117 -0.475149,-3.1835003 0.840042,-1.349725 1.919079,-0.5112465 2.280717,-0.2692514 0.505902,0.5701792 1.153107,1.377933 1.140357,2.1698485 0.372845,0.8459312 1.091189,1.5177843 0.886946,3.1518236 l -0.348442,1.108682 0.158383,1.362095 c 0.337236,-0.177557 0.209709,-0.06676 0.712724,-0.25341 -0.379097,-1.66058 0.227231,-1.956768 0.522663,-3.1676623 0.263715,-0.820907 0.475555,-2.1565076 1.203713,-2.5974829 0.461407,-1.2153831 0.985917,-1.5341783 2.090656,-2.1223336 0.917571,0.1725471 0.507611,1.1092641 0.126706,1.5204778 0.19286,0.4923873 0.189614,0.8867217 0.221739,1.2987415 -0.38275,1.4179148 -0.959833,2.6137359 -1.932272,3.3577215 -0.17987,0.710841 -0.369809,1.418326 -1.045328,1.96395 0.731228,0.217685 1.517339,0.243283 2.090657,1.013653 0.796664,0.559924 0.679066,1.642283 0.950299,2.502453 0.643872,0.464663 0.915572,0.353029 1.156195,1.577892 -0.002,0.626275 -0.537767,1.811226 -1.441284,2.191626 l -1.362096,0.506826 c 0.05003,1.854729 0.0096,3.684776 -0.855268,5.289995 -0.822733,1.025358 -1.348209,2.499851 -2.62916,2.91425 l -0.475149,0.633532 0.823592,2.312392 c 1.189647,-0.152131 1.686977,0.411208 1.805567,0.823593 0.278816,0.651516 -0.27919,0.963808 -0.728562,1.235389 -0.281986,0.288031 -2.521069,0.169785 -3.421075,-0.443474 -0.640775,-0.43662 -2.950527,-3.677672 -2.53413,-3.389397 -0.437357,0.0202 -0.864668,0.110726 -1.314943,0.04051 -0.259405,-0.04045 -0.874874,-0.0076 -1.155834,-0.198886 -0.485708,0.455968 -0.749679,0.873907 -1.235387,1.077005 1.522626,0.292093 1.480844,-0.17111 2.629159,0.506828 0.438927,0.409522 0.215007,1.057801 0.06335,1.330416 -0.497309,0.365254 -2.335748,0.414666 -2.755865,0.316773 -1.058453,-0.03168 -3.438366,-0.08318 -3.706169,-0.03168 -2.499271,0.48064 -3.059809,0.449489 -4.8781976,0.190046 -0.4049194,0.0091 -1.2100327,-0.53272 -1.3620947,-1.298741 L 8.3943044,30.092791 C 8.2523771,29.03331 7.8731698,29.11348 7.3172994,29.047463 6.0473382,30.225583 5.4958386,29.018976 4.7831697,28.445606 4.5350927,27.94389 4.0621683,27.41983 4.1496373,26.640038 4.1002322,26.143771 3.9222187,25.647504 4.4347268,25.151237 c 0.085336,-0.512018 2.5860551,-0.248199 2.755866,0.19006 z"
             id="path21"
             sodipodi:nodetypes="cccccccccccccccccccccccccccccccccccscscccccscccccccc" /></g></g></g><g
       inkscape:groupmode="layer"
       id="layer5"
       inkscape:label="Back_Foot"
       style="display:inline"
       inkscape:transform-center-x="-0.19014288"
       inkscape:transform-center-y="-0.28506836"><g
         id="g174"
         transform="translate(0.4273998,-0.5698664)"><path
           style="display:inline;fill:#ffffff;stroke:#000000;stroke-width:0.238125;stroke-linecap:round;stroke-linejoin:round;stroke-miterlimit:1.9;stroke-dasharray:none;stroke-opacity:1;paint-order:normal"
           d="m 12.886948,20.926059 c 1.29654,0.178852 3.447448,0.92397 4.529759,2.597482 0.565083,1.653596 0.491091,2.525418 -0.57018,4.371374 -0.525532,1.11924 -2.335375,1.003092 -2.787542,2.819218 l 2.027304,0.158384 1.520478,0.126707 c 0.88327,-0.01296 2.378804,0.787039 2.24904,1.235388 0.04563,0.422355 -0.19169,1.034769 -1.298742,0.981974 -6.233999,0.11151 -7.797929,0.307087 -9.8831059,-0.285089 C 8.3519078,32.907668 7.9097778,32.279995 8.0087498,31.506049 8.128468,30.974535 8.1048534,30.586353 8.4522224,29.827188 6.8777491,28.96244 6.2855442,24.235413 9.1491087,22.351506"
           id="path4"
           sodipodi:nodetypes="cccccccccccc" /><path
           id="path17-0"
           style="display:inline;mix-blend-mode:normal;fill:#2d2d2d;fill-opacity:1;stroke:none;stroke-width:0.227729;stroke-linecap:round;stroke-linejoin:round;stroke-miterlimit:1.9;stroke-dasharray:none;stroke-opacity:1;paint-order:normal"
           d="m 12.036719,31.99637 c -0.07705,-0.321003 -0.534302,-0.94367 -1.276206,-0.787076 0.425167,-0.527543 0.162708,-1.451061 -0.217155,-1.756948 -0.6682192,-0.338561 -1.18704,-0.153643 -1.9676659,0.453033 -0.4859692,0.346746 -0.7132028,1.659725 -0.4310841,2.358667 0.2301474,0.580747 0.3752124,0.621857 1.4270102,0.838978 1.0517858,0.217108 2.1685628,0.179658 2.3185648,-0.337723 -0.03901,0.20128 0.294941,-0.488728 0.146545,-0.768929 z"
           inkscape:transform-center-x="0.1087762"
           inkscape:transform-center-y="0.023773126"
           sodipodi:nodetypes="ccccccccc" /><path
           id="path25"
           style="display:inline;mix-blend-mode:normal;fill:#323232;fill-opacity:1;stroke-width:0.209229;stroke-linecap:round;stroke-linejoin:round;stroke-miterlimit:1.9"
           d="m 10.635639,22.944785 c 1.110327,-1.269579 3.485067,-0.556097 3.913085,-0.28061 1.140452,0.734034 1.960429,3.411849 1.506659,3.818648 -0.830897,0.74489 -1.806021,-2.698532 -2.638801,-2.445209 -2.305547,0.701322 -3.4939412,-0.277567 -2.780943,-1.092829 z"
           inkscape:transform-center-x="-0.4807575"
           inkscape:transform-center-y="-0.75868404"
           sodipodi:nodetypes="sssss" /><path
           style="display:inline;fill:none;stroke:#000000;stroke-width:0.238125;stroke-linecap:round;stroke-linejoin:round;stroke-miterlimit:1.9;stroke-dasharray:none;stroke-opacity:1;paint-order:normal"
           d="m 13.583834,20.989413 c 1.423246,0.622324 2.750562,0.860616 3.832873,2.534128 0.565083,1.653596 0.491091,2.525418 -0.57018,4.371374 -0.525532,1.11924 -2.335375,1.003092 -2.787542,2.819218 l 2.027304,0.158384 1.520478,0.126707 c 0.88327,-0.01296 2.378804,0.787039 2.24904,1.235388 0.04563,0.422355 -0.19169,1.034769 -1.298742,0.981974 -6.233999,0.11151 -7.797929,0.307087 -9.8831059,-0.285089 C 8.3519078,32.907668 7.9097778,32.279995 8.0087498,31.506049 8.128468,30.974535 8.1048534,30.586353 8.4522224,29.827188 6.8777491,28.96244 6.2855442,24.235413 9.1491087,22.351506"
           id="path23"
           sodipodi:nodetypes="cccccccccccc" /></g></g><g
       inkscape:groupmode="layer"
       id="layer4"
       inkscape:label="Front_Foot"
       style="display:inline"><g
         id="g173"
         transform="translate(0.4273998,-0.5698664)"><path
           style="display:inline;fill:#ffffff;stroke:#000000;stroke-width:0.211667;stroke-linecap:round;stroke-linejoin:round;stroke-miterlimit:1.9;stroke-dasharray:none;stroke-opacity:1;paint-order:normal"
           d="m 20.459989,24.915493 c -0.109168,0.267462 -0.172293,0.934463 -0.205901,1.282904 -0.04213,0.436783 -0.157732,1.012886 0.367645,2.247412 l 1.013539,1.457176 c 0.658662,1.110689 1.442466,2.204469 2.438974,3.48408 0.675847,0.529963 1.953549,0.414179 2.819456,0.475467 1.102517,0.209014 1.383415,-0.294461 1.266951,-0.886976 -0.312541,-0.733701 -1.165088,-0.767202 -1.869136,-0.697115 -0.688688,-1.876324 -1.927886,-2.833652 -2.312366,-3.484333 -0.411937,-0.784293 -0.316545,-2.517021 -0.158226,-3.627175"
           id="path2"
           sodipodi:nodetypes="cscccccccc"
           transform="matrix(1.0288401,0,0,1.0060824,-0.58115368,-0.20809481)"
           sodipodi:insensitive="true" /><path
           id="path19-6"
           style="display:inline;mix-blend-mode:normal;fill:#383838;fill-opacity:1;stroke-width:0.209229;stroke-linecap:round;stroke-linejoin:round;stroke-miterlimit:1.9"
           d="m 21.806373,26.121869 c 1.303104,1.12538 1.46775,3.323074 1.979994,4.086374 0.755763,1.126169 0.613026,2.274434 0.09924,2.602178 -0.390705,0.249231 -2.187601,-2.811193 -2.533928,-3.319063 -2.040131,-2.991745 -0.859607,-4.504538 0.454693,-3.369489 z"
           inkscape:transform-center-x="-0.70323657"
           inkscape:transform-center-y="-0.0043142251"
           sodipodi:nodetypes="ssssss" /></g></g><g
       inkscape:groupmode="layer"
       id="layer6"
       inkscape:label="Face"
       style="display:inline"><g
         id="g172"
         transform="translate(0.4273998,-0.5698664)"><g
           id="g13"
           transform="translate(-0.08711071,0.06335324)"><path
             id="path7"
             style="display:inline;fill:#030303;fill-opacity:1;stroke-width:0.190411;stroke-linecap:round;stroke-linejoin:round;stroke-miterlimit:1.9"
             d="m 32.106578,17.936791 c -10e-7,0.13931 -0.24174,0.202238 -0.382357,0.208489 -0.235894,0.01048 -0.475149,-0.13481 -0.475149,-0.274121 0,-0.139309 0.09062,-0.302247 0.326682,-0.302247 0.236061,0 0.530823,0.228569 0.530824,0.367879 z"
             sodipodi:nodetypes="sssss" /><path
             id="path8"
             style="display:inline;fill:#040404;fill-opacity:1;stroke-width:0.192646;stroke-linecap:round;stroke-linejoin:round;stroke-miterlimit:1.9"
             d="m 32.553473,17.824045 c -0.09179,0.152398 -0.269407,0.249034 -0.446401,0.249034 -0.176991,0 -0.124846,-0.154658 -0.115894,-0.227683 0.01893,-0.154465 0.155323,-0.389423 0.332317,-0.389423 0.176993,0 0.275471,0.121433 0.269929,0.215212 -0.0053,0.09042 -0.01531,0.111961 -0.03995,0.15286 z"
             sodipodi:nodetypes="ssssss" /><path
             id="path10"
             style="display:inline;fill:none;stroke:#000000;stroke-width:0.121973;stroke-linecap:round;stroke-linejoin:round;stroke-miterlimit:1.9;stroke-dasharray:none"
             d="m 32.481399,18.437647 c 0.108413,0.188026 -0.687099,0.859737 -1.820528,-0.13598"
             sodipodi:nodetypes="cc" /><path
             style="display:inline;fill:none;fill-opacity:1;stroke:#000000;stroke-width:0.107156;stroke-linecap:round;stroke-linejoin:round;stroke-miterlimit:1.9;stroke-dasharray:none;stroke-opacity:1;paint-order:normal"
             d="m 30.528344,18.45955 c 0.400707,-0.02489 1.183163,0.714668 1.607589,0.601856"
             id="path12"
             sodipodi:nodetypes="cc" /><path
             style="display:inline;fill:none;fill-opacity:1;stroke:#000000;stroke-width:0.107156;stroke-linecap:round;stroke-linejoin:round;stroke-miterlimit:1.9;stroke-dasharray:none;stroke-opacity:1;paint-order:normal"
             d="m 31.88252,18.815912 c 0.317816,-0.262512 0.227467,-0.664781 0.118787,-0.855268"
             id="path13"
             sodipodi:nodetypes="cc" /><path
             id="rect19"
             style="fill:#323232;stroke-width:0.197491;stroke-linecap:round;stroke-linejoin:round;stroke-miterlimit:1.9"
             d="m 28.297821,17.856051 0.530992,0.269867 c 0.06619,0.0336 0.104852,0.105466 0.0867,0.161047 -0.01812,0.05559 -0.08606,0.07325 -0.152248,0.03961 l -0.530992,-0.26987 c -0.06619,-0.0336 -0.104861,-0.105465 -0.0867,-0.161046 0.01812,-0.05559 0.08606,-0.07325 0.152248,-0.03961 z" /><path
             id="rect19-7"
             style="display:inline;fill:#323232;stroke-width:0.194819;stroke-linecap:round;stroke-linejoin:round;stroke-miterlimit:1.9"
             d="m 28.139644,18.772343 0.584464,-0.02813 c 0.07285,-0.0034 0.134772,0.03964 0.138835,0.09674 0.0041,0.0571 -0.05132,0.105892 -0.124179,0.109404 l -0.584465,0.02813 c -0.07285,0.0034 -0.134772,-0.03964 -0.138835,-0.09674 -0.0041,-0.0571 0.05132,-0.105892 0.12418,-0.109404 z" /><path
             id="rect19-5"
             style="display:inline;fill:#323232;stroke-width:0.188845;stroke-linecap:round;stroke-linejoin:round;stroke-miterlimit:1.9"
             d="m 28.366704,19.676119 0.49471,-0.254483 c 0.06168,-0.0317 0.13285,-0.01713 0.159608,0.0327 0.02677,0.04982 -0.0013,0.1155 -0.06301,0.147226 l -0.49471,0.254483 c -0.06167,0.0317 -0.13285,0.01713 -0.159608,-0.0327 -0.02677,-0.04982 0.0013,-0.1155 0.06301,-0.147226 z" /></g><g
           id="g14"><path
             id="path9"
             style="display:inline;fill:#010101;fill-opacity:1;stroke:none;stroke-width:0.209929;stroke-linecap:round;stroke-linejoin:round;stroke-miterlimit:1.9;stroke-opacity:1"
             d="m 28.686382,15.870234 c -0.07343,0.433377 -0.959093,-0.0097 -1.397102,-0.08898 -0.263212,-0.04766 -0.801067,-0.321468 -0.764263,-0.699593 0.02438,-0.250463 0.53899,-0.15169 1.000821,-0.221389 0.215612,-0.03254 0.53825,-0.143527 0.835859,0.328918 0.139959,0.222181 0.386126,0.318451 0.324685,0.681046 z"
             sodipodi:nodetypes="ssssss" /><path
             id="path14"
             style="fill:#ffffff;fill-opacity:1;stroke:none;stroke-width:0.0968589;stroke-linecap:round;stroke-linejoin:round;stroke-miterlimit:1.9"
             d="m 27.967176,15.343673 c 0,0.07893 -0.07499,0.166671 -0.206576,0.166671 -0.131583,0 -0.188435,-0.08778 -0.190738,-0.166671 -0.0024,-0.08297 0.04543,-0.193186 0.190738,-0.214186 0.169613,-0.02451 0.206576,0.135263 0.206576,0.214186 z"
             sodipodi:nodetypes="sssss" /></g><path
           style="fill:none;fill-opacity:1;stroke:#000000;stroke-width:0.238125;stroke-linecap:round;stroke-linejoin:round;stroke-miterlimit:1.9;stroke-dasharray:none;stroke-opacity:1;paint-order:normal"
           d="m 25.658063,18.546662 c 0.02061,0.221503 0.641033,0.03813 0.253413,0.997813 0.430452,0.718454 1.420169,0.742553 2.011466,0.665209 0.415798,0.294347 1.156627,-0.320565 1.916434,0.285089"
           id="path15"
           sodipodi:nodetypes="cccc" /></g></g></g><g
     inkscape:groupmode="layer"
     id="layer8"
     inkscape:label="Text"
     transform="translate(-1.1995359,-7.6740856)"><text
       xml:space="preserve"
       transform="matrix(0.30890754,0,0,0.29066343,27.622912,13.266625)"
       id="text175"
       style="font-size:29.3837px;line-height:0.9;text-align:start;writing-mode:lr-tb;direction:ltr;white-space:pre;shape-inside:url(#rect175);display:inline;fill:#000000"
       x="29.736328"
       y="0"><tspan
         x="148.95547"
         y="34.835414"
         id="tspan3"><tspan
           style="font-family:Roboto;-inkscape-font-specification:Roboto;text-align:center;text-anchor:middle;fill:#ffffff"
           id="tspan2">A-OK 
</tspan></tspan><tspan
         x="160.25413"
         y="62.377646"
         id="tspan5"><tspan
           style="font-family:Roboto;-inkscape-font-specification:Roboto;text-align:center;text-anchor:middle;fill:#ffffff"
           id="tspan4">Hay</tspan></tspan></text></g><metadata
     id="metadata175"><rdf:RDF><cc:Work
         rdf:about=""><dc:title>A-Ok Hay Logo</dc:title><dc:date>Jan 9th 2026</dc:date><dc:creator><cc:Agent><dc:title>Jayden Kyle</dc:title></cc:Agent></dc:creator></cc:Work></rdf:RDF></metadata></svg>
