<?xml version="1.0" encoding="UTF-8" standalone="no"?>
<!-- Created with Inkscape (http://www.inkscape.org/) -->

<svg
   width="250"
   height="150"
   viewBox="0 0 66.145832 39.6875"
   version="1.1"
   id="svg1"
   inkscape:version="1.4.2 (f4327f4, 2025-05-13)"
   sodipodi:docname="drawing.svg"
   xml:space="preserve"
   xmlns:inkscape="http://www.inkscape.org/namespaces/inkscape"
   xmlns:sodipodi="http://sodipodi.sourceforge.net/DTD/sodipodi-0.dtd"
   xmlns="http://www.w3.org/2000/svg"
   xmlns:svg="http://www.w3.org/2000/svg"><sodipodi:namedview
     id="namedview1"
     pagecolor="#ffffff"
     bordercolor="#000000"
     borderopacity="0.0745098"
     inkscape:showpageshadow="2"
     inkscape:pageopacity="0.0"
     inkscape:pagecheckerboard="0"
     inkscape:deskcolor="#262626"
     inkscape:document-units="px"
     showgrid="true"
     inkscape:zoom="2.9531033"
     inkscape:cx="123.76811"
     inkscape:cy="73.143395"
     inkscape:window-width="1440"
     inkscape:window-height="830"
     inkscape:window-x="-6"
     inkscape:window-y="-6"
     inkscape:window-maximized="1"
     inkscape:current-layer="layer3"><inkscape:grid
       id="grid1"
       units="mm"
       originx="0"
       originy="0"
       spacingx="0.3"
       spacingy="0.3"
       empcolor="#000000"
       empopacity="0.30196078"
       color="#000000"
       opacity="0.14901961"
       empspacing="5"
       enabled="true"
       visible="true" /></sodipodi:namedview><defs
     id="defs1"><inkscape:path-effect
       effect="fill_between_many"
       method="originald"
       linkedpaths="#path2,0,1|"
       id="path-effect3" /></defs><g
     inkscape:label="Layer 1"
     inkscape:groupmode="layer"
     id="layer1"
     sodipodi:insensitive="true"><rect
       style="fill:#008000;stroke-width:0.264583"
       id="rect1"
       width="66.394196"
       height="40.165955"
       x="0"
       y="0"
       sodipodi:insensitive="true" /></g><g
     inkscape:groupmode="layer"
     id="layer6"
     inkscape:label="Face"
     style="display:none"
     sodipodi:insensitive="true"><g
       id="g13"
       transform="translate(-0.08711071,0.06335324)"><path
         id="path7"
         style="display:inline;fill:#030303;fill-opacity:1;stroke-width:0.190411;stroke-linecap:round;stroke-linejoin:round;stroke-miterlimit:1.9"
         d="m 32.106578,17.936791 c -10e-7,0.13931 -0.24174,0.202238 -0.382357,0.208489 -0.235894,0.01048 -0.475149,-0.13481 -0.475149,-0.274121 0,-0.139309 0.09062,-0.302247 0.326682,-0.302247 0.236061,0 0.530823,0.228569 0.530824,0.367879 z"
         sodipodi:nodetypes="sssss" /><path
         id="path8"
         style="display:inline;fill:#040404;fill-opacity:1;stroke-width:0.192646;stroke-linecap:round;stroke-linejoin:round;stroke-miterlimit:1.9"
         d="m 32.553473,17.824045 c -0.09179,0.152398 -0.269407,0.249034 -0.446401,0.249034 -0.176991,0 -0.124846,-0.154658 -0.115894,-0.227683 0.01893,-0.154465 0.155323,-0.389423 0.332317,-0.389423 0.176993,0 0.275471,0.121433 0.269929,0.215212 -0.0053,0.09042 -0.01531,0.111961 -0.03995,0.15286 z"
         sodipodi:nodetypes="ssssss" /><path
         id="path10"
         style="display:inline;fill:none;stroke:#000000;stroke-width:0.121973;stroke-linecap:round;stroke-linejoin:round;stroke-miterlimit:1.9;stroke-dasharray:none"
         d="m 32.481399,18.437647 c 0.108413,0.188026 -0.687099,0.859737 -1.820528,-0.13598"
         sodipodi:nodetypes="cc" /><path
         style="display:inline;fill:none;fill-opacity:1;stroke:#000000;stroke-width:0.107156;stroke-linecap:round;stroke-linejoin:round;stroke-miterlimit:1.9;stroke-dasharray:none;stroke-opacity:1;paint-order:normal"
         d="m 30.528344,18.45955 c 0.400707,-0.02489 1.183163,0.714668 1.607589,0.601856"
         id="path12"
         sodipodi:nodetypes="cc" /><path
         style="display:inline;fill:none;fill-opacity:1;stroke:#000000;stroke-width:0.107156;stroke-linecap:round;stroke-linejoin:round;stroke-miterlimit:1.9;stroke-dasharray:none;stroke-opacity:1;paint-order:normal"
         d="m 31.88252,18.815912 c 0.317816,-0.262512 0.227467,-0.664781 0.118787,-0.855268"
         id="path13"
         sodipodi:nodetypes="cc" /><path
         id="rect19"
         style="fill:#323232;stroke-width:0.197491;stroke-linecap:round;stroke-linejoin:round;stroke-miterlimit:1.9"
         d="m 28.297821,17.856051 0.530992,0.269867 c 0.06619,0.0336 0.104852,0.105466 0.0867,0.161047 -0.01812,0.05559 -0.08606,0.07325 -0.152248,0.03961 l -0.530992,-0.26987 c -0.06619,-0.0336 -0.104861,-0.105465 -0.0867,-0.161046 0.01812,-0.05559 0.08606,-0.07325 0.152248,-0.03961 z" /><path
         id="rect19-7"
         style="display:inline;fill:#323232;stroke-width:0.194819;stroke-linecap:round;stroke-linejoin:round;stroke-miterlimit:1.9"
         d="m 28.139644,18.772343 0.584464,-0.02813 c 0.07285,-0.0034 0.134772,0.03964 0.138835,0.09674 0.0041,0.0571 -0.05132,0.105892 -0.124179,0.109404 l -0.584465,0.02813 c -0.07285,0.0034 -0.134772,-0.03964 -0.138835,-0.09674 -0.0041,-0.0571 0.05132,-0.105892 0.12418,-0.109404 z" /><path
         id="rect19-5"
         style="display:inline;fill:#323232;stroke-width:0.188845;stroke-linecap:round;stroke-linejoin:round;stroke-miterlimit:1.9"
         d="m 28.366704,19.676119 0.49471,-0.254483 c 0.06168,-0.0317 0.13285,-0.01713 0.159608,0.0327 0.02677,0.04982 -0.0013,0.1155 -0.06301,0.147226 l -0.49471,0.254483 c -0.06167,0.0317 -0.13285,0.01713 -0.159608,-0.0327 -0.02677,-0.04982 0.0013,-0.1155 0.06301,-0.147226 z" /></g><g
       id="g14"><path
         id="path9"
         style="display:inline;fill:#010101;fill-opacity:1;stroke:none;stroke-width:0.209929;stroke-linecap:round;stroke-linejoin:round;stroke-miterlimit:1.9;stroke-opacity:1"
         d="m 28.686382,15.870234 c -0.07343,0.433377 -0.959093,-0.0097 -1.397102,-0.08898 -0.263212,-0.04766 -0.801067,-0.321468 -0.764263,-0.699593 0.02438,-0.250463 0.53899,-0.15169 1.000821,-0.221389 0.215612,-0.03254 0.53825,-0.143527 0.835859,0.328918 0.139959,0.222181 0.386126,0.318451 0.324685,0.681046 z"
         sodipodi:nodetypes="ssssss" /><path
         id="path14"
         style="fill:#ffffff;fill-opacity:1;stroke:none;stroke-width:0.0968589;stroke-linecap:round;stroke-linejoin:round;stroke-miterlimit:1.9"
         d="m 27.967176,15.343673 c 0,0.07893 -0.07499,0.166671 -0.206576,0.166671 -0.131583,0 -0.188435,-0.08778 -0.190738,-0.166671 -0.0024,-0.08297 0.04543,-0.193186 0.190738,-0.214186 0.169613,-0.02451 0.206576,0.135263 0.206576,0.214186 z"
         sodipodi:nodetypes="sssss" /></g><path
       style="fill:none;fill-opacity:1;stroke:#000000;stroke-width:0.238125;stroke-linecap:round;stroke-linejoin:round;stroke-miterlimit:1.9;stroke-dasharray:none;stroke-opacity:1;paint-order:normal"
       d="m 25.658063,18.546662 c 0.02061,0.221503 0.641033,0.03813 0.253413,0.997813 0.430452,0.718454 1.420169,0.742553 2.011466,0.665209 0.415798,0.294347 1.156627,-0.320565 1.916434,0.285089"
       id="path15"
       sodipodi:nodetypes="cccc" /></g><g
     inkscape:groupmode="layer"
     id="layer4"
     inkscape:label="Front_Foot"
     style="display:none"
     sodipodi:insensitive="true"><path
       inkscape:original-d="M 0,0"
       inkscape:path-effect="#path-effect3"
       d="m 20.459989,24.915493 c -0.109168,0.267462 -0.172293,0.934463 -0.205901,1.282904 -0.04213,0.436783 -0.157732,1.012886 0.367645,2.247412 l 1.013539,1.457176 c 0.658662,1.110689 1.442466,2.204469 2.438974,3.48408 0.675847,0.529963 1.953549,0.414179 2.819456,0.475467 1.102517,0.209014 1.383415,-0.294461 1.266951,-0.886976 -0.312541,-0.733701 -1.165088,-0.767202 -1.869136,-0.697115 -0.688688,-1.876324 -1.927886,-2.833652 -2.312366,-3.484333 -0.411937,-0.784293 -0.316545,-2.517021 -0.158226,-3.627175 z"
       id="path3"
       style="display:inline" /><path
       style="display:inline;fill:#ffffff;stroke:#000000;stroke-width:0.211667;stroke-linecap:round;stroke-linejoin:round;stroke-miterlimit:1.9;stroke-dasharray:none;stroke-opacity:1;paint-order:normal"
       d="m 20.459989,24.915493 c -0.109168,0.267462 -0.172293,0.934463 -0.205901,1.282904 -0.04213,0.436783 -0.157732,1.012886 0.367645,2.247412 l 1.013539,1.457176 c 0.658662,1.110689 1.442466,2.204469 2.438974,3.48408 0.675847,0.529963 1.953549,0.414179 2.819456,0.475467 1.102517,0.209014 1.383415,-0.294461 1.266951,-0.886976 -0.312541,-0.733701 -1.165088,-0.767202 -1.869136,-0.697115 -0.688688,-1.876324 -1.927886,-2.833652 -2.312366,-3.484333 -0.411937,-0.784293 -0.316545,-2.517021 -0.158226,-3.627175"
       id="path2"
       sodipodi:nodetypes="cscccccccc" /><path
       id="path19-6"
       style="display:inline;mix-blend-mode:normal;fill:#383838;fill-opacity:1;stroke-width:0.209229;stroke-linecap:round;stroke-linejoin:round;stroke-miterlimit:1.9"
       d="m 21.806373,26.121869 c 1.303104,1.12538 1.46775,3.323074 1.979994,4.086374 0.755763,1.126169 0.613026,2.274434 0.09924,2.602178 -0.390705,0.249231 -2.187601,-2.811193 -2.533928,-3.319063 -2.040131,-2.991745 -0.859607,-4.504538 0.454693,-3.369489 z"
       sodipodi:nodetypes="ssssss"
       inkscape:transform-center-x="-0.70323657"
       inkscape:transform-center-y="-0.0043142251" /></g><g
     inkscape:groupmode="layer"
     id="layer5"
     inkscape:label="Back_Foot"
     style="display:none"
     inkscape:transform-center-x="-0.19014288"
     inkscape:transform-center-y="-0.28506836"
     sodipodi:insensitive="true"><path
       style="display:inline;fill:#ffffff;stroke:#000000;stroke-width:0.238125;stroke-linecap:round;stroke-linejoin:round;stroke-miterlimit:1.9;stroke-dasharray:none;stroke-opacity:1;paint-order:normal"
       d="m 12.886948,20.926059 c 1.29654,0.178852 3.447448,0.92397 4.529759,2.597482 0.565083,1.653596 0.491091,2.525418 -0.57018,4.371374 -0.525532,1.11924 -2.335375,1.003092 -2.787542,2.819218 l 2.027304,0.158384 1.520478,0.126707 c 0.88327,-0.01296 2.378804,0.787039 2.24904,1.235388 0.04563,0.422355 -0.19169,1.034769 -1.298742,0.981974 -6.233999,0.11151 -7.797929,0.307087 -9.8831059,-0.285089 C 8.3519078,32.907668 7.9097778,32.279995 8.0087498,31.506049 8.128468,30.974535 8.1048534,30.586353 8.4522224,29.827188 6.8777491,28.96244 6.2855442,24.235413 9.1491087,22.351506"
       id="path4"
       sodipodi:nodetypes="cccccccccccc" /><path
       id="path17-0"
       style="display:inline;mix-blend-mode:normal;fill:#2d2d2d;fill-opacity:1;stroke:none;stroke-width:0.227729;stroke-linecap:round;stroke-linejoin:round;stroke-miterlimit:1.9;stroke-dasharray:none;stroke-opacity:1;paint-order:normal"
       d="m 12.036719,31.99637 c -0.07705,-0.321003 -0.534302,-0.94367 -1.276206,-0.787076 0.425167,-0.527543 0.162708,-1.451061 -0.217155,-1.756948 -0.6682192,-0.338561 -1.18704,-0.153643 -1.9676659,0.453033 -0.4859692,0.346746 -0.7132028,1.659725 -0.4310841,2.358667 0.2301474,0.580747 0.3752124,0.621857 1.4270102,0.838978 1.0517858,0.217108 2.1685628,0.179658 2.3185648,-0.337723 -0.03901,0.20128 0.294941,-0.488728 0.146545,-0.768929 z"
       inkscape:transform-center-x="0.1087762"
       inkscape:transform-center-y="0.023773126"
       sodipodi:nodetypes="ccccccccc" /><path
       id="path25"
       style="display:inline;mix-blend-mode:normal;fill:#323232;fill-opacity:1;stroke-width:0.209229;stroke-linecap:round;stroke-linejoin:round;stroke-miterlimit:1.9"
       d="m 10.635639,22.944785 c 1.110327,-1.269579 3.485067,-0.556097 3.913085,-0.28061 1.140452,0.734034 1.960429,3.411849 1.506659,3.818648 -0.830897,0.74489 -1.806021,-2.698532 -2.638801,-2.445209 -2.305547,0.701322 -3.4939412,-0.277567 -2.780943,-1.092829 z"
       sodipodi:nodetypes="sssss"
       inkscape:transform-center-x="-0.4807575"
       inkscape:transform-center-y="-0.75868404" /><path
       style="display:inline;fill:none;stroke:#000000;stroke-width:0.238125;stroke-linecap:round;stroke-linejoin:round;stroke-miterlimit:1.9;stroke-dasharray:none;stroke-opacity:1;paint-order:normal"
       d="m 13.583834,20.989413 c 1.423246,0.622324 2.750562,0.860616 3.832873,2.534128 0.565083,1.653596 0.491091,2.525418 -0.57018,4.371374 -0.525532,1.11924 -2.335375,1.003092 -2.787542,2.819218 l 2.027304,0.158384 1.520478,0.126707 c 0.88327,-0.01296 2.378804,0.787039 2.24904,1.235388 0.04563,0.422355 -0.19169,1.034769 -1.298742,0.981974 -6.233999,0.11151 -7.797929,0.307087 -9.8831059,-0.285089 C 8.3519078,32.907668 7.9097778,32.279995 8.0087498,31.506049 8.128468,30.974535 8.1048534,30.586353 8.4522224,29.827188 6.8777491,28.96244 6.2855442,24.235413 9.1491087,22.351506"
       id="path23"
       sodipodi:nodetypes="cccccccccccc" /></g></svg>
